<svg width="1000" height="1400" viewBox="0 0 1000 1400" fill="none" xmlns="http://www.w3.org/2000/svg">
  <defs>
    <filter id="blur-xl" x="-20%" y="-20%" width="140%" height="140%">
      <feGaussianBlur stdDeviation="30" />
    </filter>
    <filter id="blur-md" x="-20%" y="-20%" width="140%" height="140%">
      <feGaussianBlur stdDeviation="16" />
    </filter>
    <filter id="glitter-glow" x="-200%" y="-200%" width="400%" height="400%">
      <feGaussianBlur stdDeviation="1.8" />
    </filter>
    <radialGradient id="paper" cx="0" cy="0" r="1" gradientUnits="userSpaceOnUse" gradientTransform="translate(500 700) rotate(90) scale(900 700)">
      <stop stop-color="#FFFEFC" />
      <stop offset="1" stop-color="#FBF7F2" />
    </radialGradient>
    <radialGradient id="mistA" cx="0" cy="0" r="1" gradientUnits="userSpaceOnUse" gradientTransform="translate(160 300) rotate(90) scale(230 180)">
      <stop stop-color="#E7DDD1" stop-opacity="0.7" />
      <stop offset="1" stop-color="#E7DDD1" stop-opacity="0" />
    </radialGradient>
    <radialGradient id="mistB" cx="0" cy="0" r="1" gradientUnits="userSpaceOnUse" gradientTransform="translate(850 360) rotate(90) scale(260 210)">
      <stop stop-color="#E9E0D6" stop-opacity="0.72" />
      <stop offset="1" stop-color="#E9E0D6" stop-opacity="0" />
    </radialGradient>
    <radialGradient id="mistC" cx="0" cy="0" r="1" gradientUnits="userSpaceOnUse" gradientTransform="translate(875 1080) rotate(90) scale(290 230)">
      <stop stop-color="#E6D9CB" stop-opacity="0.75" />
      <stop offset="1" stop-color="#E6D9CB" stop-opacity="0" />
    </radialGradient>
    <radialGradient id="mistD" cx="0" cy="0" r="1" gradientUnits="userSpaceOnUse" gradientTransform="translate(115 1160) rotate(90) scale(220 180)">
      <stop stop-color="#ECE3D9" stop-opacity="0.55" />
      <stop offset="1" stop-color="#ECE3D9" stop-opacity="0" />
    </radialGradient>
    <radialGradient id="gold" cx="0" cy="0" r="1" gradientUnits="userSpaceOnUse" gradientTransform="translate(0.5 0.5) scale(1)">
      <stop stop-color="#E1C27C" />
      <stop offset="0.55" stop-color="#B48A46" />
      <stop offset="1" stop-color="#8B6835" />
    </radialGradient>
  </defs>

  <rect width="1000" height="1400" fill="url(#paper)" />

  <g opacity="0.9" filter="url(#blur-xl)">
    <path d="M30 135C80 90 160 72 220 114C283 158 250 260 198 314C140 374 54 394 6 338C-48 276 -27 190 30 135Z" fill="url(#mistA)" />
    <path d="M-34 392C30 350 132 346 182 418C228 484 196 580 116 612C52 640 -28 616 -62 548C-96 476 -78 422 -34 392Z" fill="url(#mistA)" />
    <path d="M760 124C840 78 954 118 1001 212C1040 292 1005 396 918 430C816 470 698 398 686 292C678 222 706 156 760 124Z" fill="url(#mistB)" />
    <path d="M782 472C844 432 946 434 1004 500C1062 566 1058 682 986 738C920 788 826 774 774 718C716 656 710 522 782 472Z" fill="url(#mistB)" />
    <path d="M758 948C846 884 972 908 1027 1000C1088 1102 1064 1252 964 1310C852 1374 704 1318 664 1198C634 1108 672 1012 758 948Z" fill="url(#mistC)" />
    <path d="M12 1026C70 990 150 994 196 1048C242 1100 252 1190 212 1248C166 1314 70 1338 4 1288C-64 1238 -54 1070 12 1026Z" fill="url(#mistD)" />
  </g>

  <g opacity="0.45" filter="url(#blur-md)">
    <circle cx="96" cy="260" r="34" fill="#EFE7DE" />
    <circle cx="84" cy="430" r="42" fill="#F1E8DE" />
    <circle cx="898" cy="270" r="38" fill="#EEE4D8" />
    <circle cx="930" cy="520" r="30" fill="#EFE6DB" />
    <circle cx="902" cy="1180" r="44" fill="#EEE4D8" />
    <circle cx="120" cy="1268" r="36" fill="#F1E8DE" />
  </g>

</svg>
